# xmcd CD database file
#
# Track frame offsets:
#	150
#	42524
#	70097
#	101793
#	124043
#	155479
#	191293
#	244894
#
# Disc length: 3560 seconds
#
# Revision: 0
# Processed by: cddbd v1.5.2PL0 Copyright (c) Steve Scherf et al.
# Submitted via: CDex 1.50
#
DISCID=6a0de608
DTITLE=Ryan Blotnick - Kush_R Blotnick, M Blake, S Colberg, RJ Miller, J Lam
DYEAR=2016
DGENRE=Jazz
TTITLE0=Kush
TTITLE1=Lunenburg
TTITLE2=May Day
TTITLE3=Churchy
TTITLE4=Delaware
TTITLE5=And Bright Snow
TTITLE6=DX7
TTITLE7=Spring
EXTD=YEAR: 2016
EXTT0=
EXTT1=
EXTT2=
EXTT3=
EXTT4=
EXTT5=
EXTT6=
EXTT7=
PLAYORDER=
